<svg width="171" height="64" viewBox="0 0 171 64" fill="none" xmlns="http://www.w3.org/2000/svg">
<g clip-path="url(#clip0_0_348)">
<path d="M50.7158 56.1367C49.6084 56.1367 48.7334 55.7995 48.0908 55.125C47.4528 54.4505 47.1338 53.514 47.1338 52.3154C47.1338 51.1077 47.43 50.1484 48.0225 49.4375C48.6195 48.7266 49.4193 48.3711 50.4219 48.3711C51.3607 48.3711 52.1035 48.681 52.6504 49.3008C53.1973 49.916 53.4707 50.7295 53.4707 51.7412V52.459H48.3096C48.3324 53.3385 48.5534 54.0062 48.9727 54.4619C49.3965 54.9176 49.9912 55.1455 50.7568 55.1455C51.5635 55.1455 52.361 54.9769 53.1494 54.6396V55.6514C52.7484 55.8245 52.3678 55.9476 52.0078 56.0205C51.6523 56.098 51.2217 56.1367 50.7158 56.1367ZM50.4082 49.3213C49.8066 49.3213 49.3258 49.5173 48.9658 49.9092C48.6104 50.3011 48.4007 50.8434 48.3369 51.5361H52.2539C52.2539 50.8206 52.0944 50.2738 51.7754 49.8955C51.4564 49.5127 51.0007 49.3213 50.4082 49.3213ZM57.2168 52.165L54.6123 48.5078H55.9043L57.8799 51.3789L59.8486 48.5078H61.127L58.5225 52.165L61.2637 56H59.9785L57.8799 52.9648L55.7607 56H54.4756L57.2168 52.165ZM67.3613 56L67.1357 54.9336H67.0811C66.7074 55.403 66.3337 55.722 65.96 55.8906C65.5908 56.0547 65.1283 56.1367 64.5723 56.1367C63.8294 56.1367 63.2461 55.9453 62.8223 55.5625C62.403 55.1797 62.1934 54.6351 62.1934 53.9287C62.1934 52.4157 63.4033 51.6227 65.8232 51.5498L67.0947 51.5088V51.0439C67.0947 50.4561 66.9671 50.0231 66.7119 49.7451C66.4613 49.4626 66.0579 49.3213 65.502 49.3213C64.8776 49.3213 64.1712 49.5127 63.3828 49.8955L63.0342 49.0273C63.4033 48.8268 63.8066 48.6696 64.2441 48.5557C64.6862 48.4417 65.1283 48.3848 65.5703 48.3848C66.4635 48.3848 67.1243 48.583 67.5527 48.9795C67.9857 49.376 68.2021 50.0117 68.2021 50.8867V56H67.3613ZM64.7979 55.2002C65.5042 55.2002 66.0579 55.0065 66.459 54.6191C66.8646 54.2318 67.0674 53.6895 67.0674 52.9922V52.3154L65.9326 52.3633C65.0303 52.3952 64.3786 52.5365 63.9775 52.7871C63.5811 53.0332 63.3828 53.4183 63.3828 53.9424C63.3828 54.3525 63.5059 54.6647 63.752 54.8789C64.0026 55.0931 64.3512 55.2002 64.7979 55.2002ZM80.0967 56V51.126C80.0967 50.529 79.9691 50.0824 79.7139 49.7861C79.4587 49.4854 79.0622 49.335 78.5244 49.335C77.818 49.335 77.2962 49.5378 76.959 49.9434C76.6217 50.349 76.4531 50.9733 76.4531 51.8164V56H75.3184V51.126C75.3184 50.529 75.1908 50.0824 74.9355 49.7861C74.6803 49.4854 74.2816 49.335 73.7393 49.335C73.0283 49.335 72.5065 49.5492 72.1738 49.9775C71.8457 50.4014 71.6816 51.0986 71.6816 52.0693V56H70.5469V48.5078H71.4697L71.6543 49.5332H71.709C71.9232 49.1686 72.224 48.8838 72.6113 48.6787C73.0033 48.4736 73.4408 48.3711 73.9238 48.3711C75.0951 48.3711 75.8607 48.7949 76.2207 49.6426H76.2754C76.4987 49.2507 76.8223 48.9408 77.2461 48.7129C77.6699 48.485 78.153 48.3711 78.6953 48.3711C79.543 48.3711 80.1764 48.5898 80.5957 49.0273C81.0195 49.4603 81.2314 50.1553 81.2314 51.1123V56H80.0967ZM87.0625 56.1367C86.5749 56.1367 86.1283 56.0479 85.7227 55.8701C85.3216 55.6878 84.9844 55.4098 84.7109 55.0361H84.6289C84.6836 55.4736 84.7109 55.8883 84.7109 56.2803V59.3633H83.5762V48.5078H84.499L84.6562 49.5332H84.7109C85.0026 49.123 85.3421 48.8268 85.7295 48.6445C86.1169 48.4622 86.5612 48.3711 87.0625 48.3711C88.056 48.3711 88.8216 48.7106 89.3594 49.3896C89.9017 50.0687 90.1729 51.0212 90.1729 52.2471C90.1729 53.4775 89.8971 54.4346 89.3457 55.1182C88.7988 55.7972 88.0378 56.1367 87.0625 56.1367ZM86.8984 49.335C86.1328 49.335 85.5791 49.5469 85.2373 49.9707C84.8955 50.3945 84.7201 51.069 84.7109 51.9941V52.2471C84.7109 53.2998 84.8864 54.054 85.2373 54.5098C85.5882 54.9609 86.151 55.1865 86.9258 55.1865C87.5729 55.1865 88.0788 54.9245 88.4434 54.4004C88.8125 53.8763 88.9971 53.154 88.9971 52.2334C88.9971 51.2992 88.8125 50.5837 88.4434 50.0869C88.0788 49.5856 87.5638 49.335 86.8984 49.335ZM93.2969 56H92.1621V45.3633H93.2969V56ZM98.8682 56.1367C97.7607 56.1367 96.8857 55.7995 96.2432 55.125C95.6051 54.4505 95.2861 53.514 95.2861 52.3154C95.2861 51.1077 95.5824 50.1484 96.1748 49.4375C96.7718 48.7266 97.5716 48.3711 98.5742 48.3711C99.513 48.3711 100.256 48.681 100.803 49.3008C101.35 49.916 101.623 50.7295 101.623 51.7412V52.459H96.4619C96.4847 53.3385 96.7057 54.0062 97.125 54.4619C97.5488 54.9176 98.1436 55.1455 98.9092 55.1455C99.7158 55.1455 100.513 54.9769 101.302 54.6396V55.6514C100.901 55.8245 100.52 55.9476 100.16 56.0205C99.8047 56.098 99.374 56.1367 98.8682 56.1367ZM98.5605 49.3213C97.959 49.3213 97.4782 49.5173 97.1182 49.9092C96.7627 50.3011 96.5531 50.8434 96.4893 51.5361H100.406C100.406 50.8206 100.247 50.2738 99.9277 49.8955C99.6087 49.5127 99.153 49.3213 98.5605 49.3213ZM114.119 51.0166C114.119 51.6637 114.019 52.2562 113.818 52.7939C113.618 53.3317 113.335 53.7487 112.971 54.0449C112.606 54.3411 112.187 54.4893 111.713 54.4893C111.321 54.4893 110.991 54.3708 110.722 54.1338C110.453 53.8968 110.293 53.5938 110.243 53.2246H110.188C110.006 53.6211 109.744 53.931 109.402 54.1543C109.065 54.3776 108.664 54.4893 108.199 54.4893C107.516 54.4893 106.98 54.2568 106.593 53.792C106.21 53.3226 106.019 52.6868 106.019 51.8848C106.019 50.9551 106.287 50.2008 106.825 49.6221C107.363 49.0387 108.069 48.7471 108.944 48.7471C109.254 48.7471 109.605 48.7767 109.997 48.8359C110.389 48.8906 110.742 48.9681 111.057 49.0684L110.886 52.2812V52.4316C110.886 53.2428 111.189 53.6484 111.795 53.6484C112.21 53.6484 112.547 53.4046 112.807 52.917C113.066 52.4248 113.196 51.7868 113.196 51.0029C113.196 50.1781 113.028 49.4557 112.69 48.8359C112.353 48.2161 111.872 47.7399 111.248 47.4072C110.628 47.07 109.915 46.9014 109.108 46.9014C108.092 46.9014 107.208 47.1133 106.456 47.5371C105.704 47.9564 105.13 48.5579 104.733 49.3418C104.337 50.1211 104.139 51.0234 104.139 52.0488C104.139 53.4388 104.506 54.5075 105.239 55.2549C105.973 56.0023 107.03 56.376 108.411 56.376C109.368 56.376 110.362 56.18 111.392 55.7881V56.6973C110.517 57.0801 109.523 57.2715 108.411 57.2715C106.757 57.2715 105.472 56.818 104.556 55.9111C103.644 54.9997 103.188 53.7282 103.188 52.0967C103.188 50.9118 103.432 49.8568 103.92 48.9316C104.408 48.0065 105.103 47.291 106.005 46.7852C106.907 46.2747 107.942 46.0195 109.108 46.0195C110.088 46.0195 110.959 46.2269 111.72 46.6416C112.485 47.0518 113.076 47.6374 113.49 48.3984C113.91 49.1549 114.119 50.0277 114.119 51.0166ZM107.051 51.9121C107.051 53.0697 107.495 53.6484 108.384 53.6484C109.327 53.6484 109.84 52.9352 109.922 51.5088L110.018 49.7246C109.689 49.6335 109.332 49.5879 108.944 49.5879C108.352 49.5879 107.887 49.793 107.55 50.2031C107.217 50.6133 107.051 51.1829 107.051 51.9121ZM119.533 49.3896H117.626V56H116.491V49.3896H115.151V48.877L116.491 48.4668V48.0498C116.491 46.2087 117.296 45.2881 118.904 45.2881C119.301 45.2881 119.766 45.3678 120.299 45.5273L120.005 46.4365C119.567 46.2952 119.194 46.2246 118.884 46.2246C118.455 46.2246 118.139 46.3682 117.934 46.6553C117.729 46.9378 117.626 47.3936 117.626 48.0225V48.5078H119.533V49.3896ZM119.711 48.5078H120.928L122.568 52.7803C122.928 53.7555 123.152 54.4596 123.238 54.8926H123.293C123.352 54.6602 123.475 54.2637 123.662 53.7031C123.854 53.138 124.473 51.4062 125.521 48.5078H126.738L123.519 57.0391C123.2 57.8822 122.826 58.4792 122.397 58.8301C121.974 59.1855 121.452 59.3633 120.832 59.3633C120.486 59.3633 120.144 59.3245 119.807 59.2471V58.3379C120.057 58.3926 120.338 58.4199 120.647 58.4199C121.427 58.4199 121.983 57.9824 122.315 57.1074L122.732 56.041L119.711 48.5078ZM129.09 56H127.955V45.3633H129.09V56ZM137.963 52.2471C137.963 53.4684 137.655 54.4232 137.04 55.1113C136.425 55.7949 135.575 56.1367 134.49 56.1367C133.82 56.1367 133.226 55.9795 132.706 55.665C132.187 55.3506 131.785 54.8994 131.503 54.3115C131.22 53.7236 131.079 53.0355 131.079 52.2471C131.079 51.0257 131.384 50.0755 131.995 49.3965C132.606 48.7129 133.453 48.3711 134.538 48.3711C135.586 48.3711 136.418 48.7197 137.033 49.417C137.653 50.1143 137.963 51.0576 137.963 52.2471ZM132.255 52.2471C132.255 53.2041 132.446 53.9333 132.829 54.4346C133.212 54.9359 133.775 55.1865 134.518 55.1865C135.26 55.1865 135.823 54.9382 136.206 54.4414C136.593 53.9401 136.787 53.2087 136.787 52.2471C136.787 51.2946 136.593 50.5723 136.206 50.0801C135.823 49.5833 135.256 49.335 134.504 49.335C133.761 49.335 133.201 49.5788 132.822 50.0664C132.444 50.554 132.255 51.2809 132.255 52.2471ZM139.795 55.2754C139.795 54.9701 139.863 54.7399 140 54.585C140.141 54.4255 140.342 54.3457 140.602 54.3457C140.866 54.3457 141.071 54.4255 141.217 54.585C141.367 54.7399 141.442 54.9701 141.442 55.2754C141.442 55.5716 141.367 55.7995 141.217 55.959C141.066 56.1185 140.861 56.1982 140.602 56.1982C140.369 56.1982 140.175 56.1276 140.021 55.9863C139.87 55.8405 139.795 55.6035 139.795 55.2754ZM146.686 56.1367C145.601 56.1367 144.76 55.804 144.163 55.1387C143.571 54.4688 143.274 53.5231 143.274 52.3018C143.274 51.0485 143.575 50.0801 144.177 49.3965C144.783 48.7129 145.644 48.3711 146.761 48.3711C147.121 48.3711 147.481 48.4098 147.841 48.4873C148.201 48.5648 148.483 48.6559 148.688 48.7607L148.34 49.7246C148.089 49.6243 147.816 49.5423 147.52 49.4785C147.223 49.4102 146.961 49.376 146.733 49.376C145.211 49.376 144.45 50.3467 144.45 52.2881C144.45 53.2087 144.635 53.915 145.004 54.4072C145.378 54.8994 145.929 55.1455 146.658 55.1455C147.283 55.1455 147.923 55.0111 148.579 54.7422V55.7471C148.078 56.0068 147.447 56.1367 146.686 56.1367ZM156.83 52.2471C156.83 53.4684 156.522 54.4232 155.907 55.1113C155.292 55.7949 154.442 56.1367 153.357 56.1367C152.688 56.1367 152.093 55.9795 151.573 55.665C151.054 55.3506 150.653 54.8994 150.37 54.3115C150.088 53.7236 149.946 53.0355 149.946 52.2471C149.946 51.0257 150.252 50.0755 150.862 49.3965C151.473 48.7129 152.321 48.3711 153.405 48.3711C154.453 48.3711 155.285 48.7197 155.9 49.417C156.52 50.1143 156.83 51.0576 156.83 52.2471ZM151.122 52.2471C151.122 53.2041 151.313 53.9333 151.696 54.4346C152.079 54.9359 152.642 55.1865 153.385 55.1865C154.128 55.1865 154.69 54.9382 155.073 54.4414C155.461 53.9401 155.654 53.2087 155.654 52.2471C155.654 51.2946 155.461 50.5723 155.073 50.0801C154.69 49.5833 154.123 49.335 153.371 49.335C152.628 49.335 152.068 49.5788 151.689 50.0664C151.311 50.554 151.122 51.2809 151.122 52.2471ZM168.376 56V51.126C168.376 50.529 168.248 50.0824 167.993 49.7861C167.738 49.4854 167.341 49.335 166.804 49.335C166.097 49.335 165.576 49.5378 165.238 49.9434C164.901 50.349 164.732 50.9733 164.732 51.8164V56H163.598V51.126C163.598 50.529 163.47 50.0824 163.215 49.7861C162.96 49.4854 162.561 49.335 162.019 49.335C161.308 49.335 160.786 49.5492 160.453 49.9775C160.125 50.4014 159.961 51.0986 159.961 52.0693V56H158.826V48.5078H159.749L159.934 49.5332H159.988C160.202 49.1686 160.503 48.8838 160.891 48.6787C161.283 48.4736 161.72 48.3711 162.203 48.3711C163.374 48.3711 164.14 48.7949 164.5 49.6426H164.555C164.778 49.2507 165.102 48.9408 165.525 48.7129C165.949 48.485 166.432 48.3711 166.975 48.3711C167.822 48.3711 168.456 48.5898 168.875 49.0273C169.299 49.4603 169.511 50.1553 169.511 51.1123V56H168.376Z" fill="white"/>
</g>
<path fill-rule="evenodd" clip-rule="evenodd" d="M20 44H4C2.9 44 2 44.9 2 46V58C2 59.1 2.9 60 4 60H20C21.1 60 22 59.1 22 58V46C22 44.9 21.1 44 20 44ZM20 58H18V49.2L12 53L6 49.2V58H4V46H5.2L12 50.2L18.8 46H20V58Z" fill="white"/>
<path d="M52.126 10.5928H54.9424V11.5361H52.126V14.4482H51.1758V11.5361H48.373V10.5928H51.1758V7.66699H52.126V10.5928ZM60.5615 16H59.4541V8.87695C59.4541 8.28451 59.4723 7.72396 59.5088 7.19531C59.4131 7.29102 59.306 7.39128 59.1875 7.49609C59.069 7.60091 58.5267 8.04525 57.5605 8.8291L56.959 8.0498L59.6045 6.00586H60.5615V16ZM64.2598 12.7666V11.7275H67.6162V12.7666H64.2598ZM72.0049 9.89551C73.0576 9.89551 73.8848 10.1576 74.4863 10.6816C75.0924 11.2012 75.3955 11.9144 75.3955 12.8213C75.3955 13.8558 75.0651 14.667 74.4043 15.2549C73.748 15.8428 72.8411 16.1367 71.6836 16.1367C70.5579 16.1367 69.6989 15.9567 69.1064 15.5967V14.5029C69.4255 14.708 69.8219 14.8698 70.2959 14.9883C70.7699 15.1022 71.237 15.1592 71.6973 15.1592C72.4993 15.1592 73.1214 14.9701 73.5635 14.5918C74.0101 14.2135 74.2334 13.6667 74.2334 12.9512C74.2334 11.5566 73.3789 10.8594 71.6699 10.8594C71.237 10.8594 70.6582 10.9255 69.9336 11.0576L69.3457 10.6816L69.7217 6.00586H74.6914V7.05176H70.6924L70.4395 10.0527C70.9635 9.94792 71.4854 9.89551 72.0049 9.89551ZM83.9336 13.7031H82.4502V16H81.3633V13.7031H76.5029V12.7119L81.2471 5.95117H82.4502V12.6709H83.9336V13.7031ZM81.3633 12.6709V9.34863C81.3633 8.69694 81.3861 7.96094 81.4316 7.14062H81.377C81.1582 7.57812 80.9531 7.94043 80.7617 8.22754L77.6377 12.6709H81.3633ZM91.0977 8.35742C91.0977 8.99544 90.9176 9.51725 90.5576 9.92285C90.2021 10.3285 89.6963 10.5996 89.04 10.7363V10.791C89.8421 10.8913 90.4368 11.1465 90.8242 11.5566C91.2116 11.9668 91.4053 12.5046 91.4053 13.1699C91.4053 14.1224 91.0749 14.8561 90.4141 15.3711C89.7533 15.8815 88.8145 16.1367 87.5977 16.1367C87.069 16.1367 86.5837 16.0957 86.1416 16.0137C85.7041 15.9362 85.278 15.7972 84.8633 15.5967V14.5166C85.2962 14.7308 85.7565 14.8949 86.2441 15.0088C86.7363 15.1182 87.2012 15.1729 87.6387 15.1729C89.3659 15.1729 90.2295 14.4961 90.2295 13.1426C90.2295 11.9303 89.277 11.3242 87.3721 11.3242H86.3877V10.3467H87.3857C88.165 10.3467 88.7826 10.1758 89.2383 9.83398C89.694 9.48763 89.9219 9.00911 89.9219 8.39844C89.9219 7.91081 89.7533 7.52799 89.416 7.25C89.0833 6.97201 88.6299 6.83301 88.0557 6.83301C87.6182 6.83301 87.2057 6.89225 86.8184 7.01074C86.431 7.12923 85.9889 7.34798 85.4922 7.66699L84.918 6.90137C85.3281 6.5778 85.7998 6.32487 86.333 6.14258C86.8708 5.95573 87.4359 5.8623 88.0283 5.8623C88.999 5.8623 89.7533 6.08561 90.291 6.53223C90.8288 6.97428 91.0977 7.58268 91.0977 8.35742ZM92.8066 12.7666V11.7275H96.1631V12.7666H92.8066ZM101.632 16H100.524V8.87695C100.524 8.28451 100.543 7.72396 100.579 7.19531C100.483 7.29102 100.376 7.39128 100.258 7.49609C100.139 7.60091 99.597 8.04525 98.6309 8.8291L98.0293 8.0498L100.675 6.00586H101.632V16ZM112.009 16H105.439V15.0225L108.071 12.377C108.873 11.5658 109.402 10.987 109.657 10.6406C109.912 10.2943 110.104 9.95703 110.231 9.62891C110.359 9.30078 110.423 8.94759 110.423 8.56934C110.423 8.03613 110.261 7.61458 109.938 7.30469C109.614 6.99023 109.165 6.83301 108.591 6.83301C108.176 6.83301 107.782 6.90137 107.408 7.03809C107.039 7.1748 106.627 7.42318 106.171 7.7832L105.569 7.01074C106.49 6.24512 107.493 5.8623 108.577 5.8623C109.516 5.8623 110.252 6.10384 110.785 6.58691C111.318 7.06543 111.585 7.71029 111.585 8.52148C111.585 9.15495 111.407 9.78158 111.052 10.4014C110.696 11.0212 110.031 11.805 109.056 12.7529L106.868 14.8926V14.9473H112.009V16ZM119.645 8.35742C119.645 8.99544 119.465 9.51725 119.104 9.92285C118.749 10.3285 118.243 10.5996 117.587 10.7363V10.791C118.389 10.8913 118.984 11.1465 119.371 11.5566C119.758 11.9668 119.952 12.5046 119.952 13.1699C119.952 14.1224 119.622 14.8561 118.961 15.3711C118.3 15.8815 117.361 16.1367 116.145 16.1367C115.616 16.1367 115.131 16.0957 114.688 16.0137C114.251 15.9362 113.825 15.7972 113.41 15.5967V14.5166C113.843 14.7308 114.303 14.8949 114.791 15.0088C115.283 15.1182 115.748 15.1729 116.186 15.1729C117.913 15.1729 118.776 14.4961 118.776 13.1426C118.776 11.9303 117.824 11.3242 115.919 11.3242H114.935V10.3467H115.933C116.712 10.3467 117.329 10.1758 117.785 9.83398C118.241 9.48763 118.469 9.00911 118.469 8.39844C118.469 7.91081 118.3 7.52799 117.963 7.25C117.63 6.97201 117.177 6.83301 116.603 6.83301C116.165 6.83301 115.753 6.89225 115.365 7.01074C114.978 7.12923 114.536 7.34798 114.039 7.66699L113.465 6.90137C113.875 6.5778 114.347 6.32487 114.88 6.14258C115.418 5.95573 115.983 5.8623 116.575 5.8623C117.546 5.8623 118.3 6.08561 118.838 6.53223C119.376 6.97428 119.645 7.58268 119.645 8.35742ZM121.354 12.7666V11.7275H124.71V12.7666H121.354ZM133.016 13.7031H131.532V16H130.445V13.7031H125.585V12.7119L130.329 5.95117H131.532V12.6709H133.016V13.7031ZM130.445 12.6709V9.34863C130.445 8.69694 130.468 7.96094 130.514 7.14062H130.459C130.24 7.57812 130.035 7.94043 129.844 8.22754L126.72 12.6709H130.445ZM137.11 9.89551C138.163 9.89551 138.99 10.1576 139.592 10.6816C140.198 11.2012 140.501 11.9144 140.501 12.8213C140.501 13.8558 140.171 14.667 139.51 15.2549C138.854 15.8428 137.947 16.1367 136.789 16.1367C135.663 16.1367 134.804 15.9567 134.212 15.5967V14.5029C134.531 14.708 134.927 14.8698 135.401 14.9883C135.875 15.1022 136.342 15.1592 136.803 15.1592C137.605 15.1592 138.227 14.9701 138.669 14.5918C139.116 14.2135 139.339 13.6667 139.339 12.9512C139.339 11.5566 138.484 10.8594 136.775 10.8594C136.342 10.8594 135.764 10.9255 135.039 11.0576L134.451 10.6816L134.827 6.00586H139.797V7.05176H135.798L135.545 10.0527C136.069 9.94792 136.591 9.89551 137.11 9.89551ZM142.114 11.7275C142.114 9.76335 142.495 8.2959 143.256 7.3252C144.021 6.34993 145.152 5.8623 146.646 5.8623C147.161 5.8623 147.567 5.9056 147.863 5.99219V6.96973C147.512 6.85579 147.111 6.79883 146.66 6.79883C145.589 6.79883 144.771 7.13379 144.206 7.80371C143.641 8.46908 143.331 9.51725 143.276 10.9482H143.358C143.86 10.1644 144.653 9.77246 145.737 9.77246C146.635 9.77246 147.341 10.0436 147.856 10.5859C148.376 11.1283 148.636 11.8643 148.636 12.7939C148.636 13.833 148.351 14.651 147.781 15.248C147.216 15.8405 146.451 16.1367 145.484 16.1367C144.45 16.1367 143.63 15.7493 143.023 14.9746C142.417 14.1953 142.114 13.113 142.114 11.7275ZM145.471 15.1729C146.118 15.1729 146.619 14.9701 146.975 14.5645C147.335 14.1543 147.515 13.5641 147.515 12.7939C147.515 12.1331 147.348 11.6136 147.016 11.2354C146.683 10.8571 146.186 10.668 145.525 10.668C145.115 10.668 144.739 10.7523 144.397 10.9209C144.056 11.0895 143.782 11.3219 143.577 11.6182C143.377 11.9144 143.276 12.222 143.276 12.541C143.276 13.0104 143.368 13.4479 143.55 13.8535C143.732 14.2591 143.99 14.5804 144.322 14.8174C144.66 15.0544 145.042 15.1729 145.471 15.1729ZM151.274 16L155.417 7.05176H149.969V6.00586H156.62V6.91504L152.532 16H151.274Z" fill="white"/>
<path fill-rule="evenodd" clip-rule="evenodd" d="M20 15.5C18.8 15.5 17.6 15.3 16.4 14.9C16.1 14.8 15.7 14.9 15.4 15.1L13.2 17.3C10.4 15.9 8.1 13.5 6.6 10.7L8.8 8.5C9.1 8.2 9.2 7.8 9 7.5C8.7 6.4 8.5 5.2 8.5 4C8.5 3.4 8.1 3 7.5 3H4C3.4 3 3 3.4 3 4C3 13.4 10.6 21 20 21C20.6 21 21 20.6 21 20V16.5C21 15.9 20.6 15.5 20 15.5ZM19 12H21C21 7 17 3 12 3V5C15.9 5 19 8.1 19 12ZM15 12H17C17 9.2 14.8 7 12 7V9C13.7 9 15 10.3 15 12Z" fill="white"/>
<defs>
<clipPath id="clip0_0_348">
<rect width="125" height="21" fill="white" transform="translate(46 40)"/>
</clipPath>
</defs>
</svg>
